<svg xmlns="http://www.w3.org/2000/svg" width="316.335" height="198.004" viewBox="0 0 316.335 198.004"><defs><style>.a{opacity:0.5;}.b{fill:#fff;}.c{fill:#fd951f;}</style></defs><g transform="translate(0)"><g class="a" transform="translate(94.877 186.656)"><g transform="translate(0 0)"><path class="b" d="M15.016-.334V-11.38h3.869a5.08,5.08,0,0,1,3.05.77,2.633,2.633,0,0,1,1.039,2.257,2.5,2.5,0,0,1-.417,1.43,2.41,2.41,0,0,1-1.161.907,2.332,2.332,0,0,1,1.339.857,2.534,2.534,0,0,1,.489,1.578,2.915,2.915,0,0,1-1.017,2.412,4.576,4.576,0,0,1-2.9.834Zm2.276-4.81v2.981h1.95A1.881,1.881,0,0,0,20.5-2.546,1.314,1.314,0,0,0,20.948-3.6a1.387,1.387,0,0,0-1.57-1.54Zm0-1.608h1.684Q20.7-6.782,20.7-8.125a1.269,1.269,0,0,0-.436-1.081,2.294,2.294,0,0,0-1.377-.33H17.291Zm23.02,1.145a6.668,6.668,0,0,1-.577,2.86,4.342,4.342,0,0,1-1.65,1.9,4.564,4.564,0,0,1-2.462.668,4.6,4.6,0,0,1-2.45-.66A4.384,4.384,0,0,1,31.5-2.728a6.477,6.477,0,0,1-.6-2.818v-.546a6.633,6.633,0,0,1,.588-2.871,4.377,4.377,0,0,1,1.661-1.9,4.57,4.57,0,0,1,2.454-.664,4.57,4.57,0,0,1,2.454.664,4.377,4.377,0,0,1,1.661,1.9A6.614,6.614,0,0,1,40.312-6.1Zm-2.306-.5a4.648,4.648,0,0,0-.622-2.64,2.027,2.027,0,0,0-1.775-.9,2.028,2.028,0,0,0-1.768.891,4.6,4.6,0,0,0-.63,2.613v.539a4.706,4.706,0,0,0,.622,2.625,2.022,2.022,0,0,0,1.79.933,2,2,0,0,0,1.76-.9,4.679,4.679,0,0,0,.622-2.621Zm19.341.5a6.668,6.668,0,0,1-.577,2.86,4.342,4.342,0,0,1-1.65,1.9,4.564,4.564,0,0,1-2.462.668,4.6,4.6,0,0,1-2.45-.66A4.384,4.384,0,0,1,48.54-2.728a6.477,6.477,0,0,1-.6-2.818v-.546a6.633,6.633,0,0,1,.588-2.871,4.377,4.377,0,0,1,1.661-1.9,4.57,4.57,0,0,1,2.454-.664,4.57,4.57,0,0,1,2.454.664,4.377,4.377,0,0,1,1.661,1.9A6.614,6.614,0,0,1,57.347-6.1Zm-2.306-.5a4.648,4.648,0,0,0-.622-2.64,2.027,2.027,0,0,0-1.775-.9,2.028,2.028,0,0,0-1.768.891,4.6,4.6,0,0,0-.63,2.613v.539a4.706,4.706,0,0,0,.622,2.625,2.022,2.022,0,0,0,1.79.933,2,2,0,0,0,1.76-.9,4.679,4.679,0,0,0,.622-2.621ZM72.979-9.536H69.6v9.2H67.319v-9.2H63.981V-11.38h9ZM89.043-4.014a3.909,3.909,0,0,1-1.316,2.807A4.622,4.622,0,0,1,84.6-.183a4.156,4.156,0,0,1-3.342-1.43,5.863,5.863,0,0,1-1.218-3.926v-.675A6.621,6.621,0,0,1,80.6-9.02a4.207,4.207,0,0,1,1.6-1.862,4.494,4.494,0,0,1,2.424-.649,4.5,4.5,0,0,1,3.08,1.024,4.2,4.2,0,0,1,1.35,2.875H86.782a2.307,2.307,0,0,0-.6-1.551,2.205,2.205,0,0,0-1.559-.482,1.934,1.934,0,0,0-1.7.815,4.57,4.57,0,0,0-.58,2.53v.834a4.891,4.891,0,0,0,.542,2.617,1.9,1.9,0,0,0,1.711.827,2.247,2.247,0,0,0,1.574-.482,2.176,2.176,0,0,0,.6-1.491Zm14.039,1.4h-3.99L98.332-.334h-2.42l4.112-11.045h2.109L106.267-.334h-2.42ZM99.705-4.454h2.761l-1.388-4.134Zm16.876-6.926,2.837,8.011,2.822-8.011h2.989V-.334h-2.283V-3.354l.228-5.212L120.192-.334h-1.563l-2.974-8.223.228,5.2V-.334h-2.276V-11.38ZM135.8-4.226V-.334h-2.276V-11.38h4.309a4.985,4.985,0,0,1,2.189.455,3.354,3.354,0,0,1,1.453,1.293,3.606,3.606,0,0,1,.508,1.908,3.171,3.171,0,0,1-1.111,2.56,4.629,4.629,0,0,1-3.076.937Zm0-1.843h2.033a2,2,0,0,0,1.377-.425,1.545,1.545,0,0,0,.474-1.214,1.822,1.822,0,0,0-.478-1.312,1.785,1.785,0,0,0-1.32-.516H135.8Z" transform="translate(-15.016 11.531)"/></g></g><g transform="translate(116.043 0)"><path class="c" d="M41.721,95.442a2.929,2.929,0,0,1-.886-.137L8.24,84.971A2.918,2.918,0,0,1,6.2,82.406L.009,3.16A2.931,2.931,0,0,1,2.932,0H80.51a2.931,2.931,0,0,1,2.923,3.16L77.238,82.406A2.916,2.916,0,0,1,75.2,84.971l-32.6,10.334A2.924,2.924,0,0,1,41.721,95.442ZM27.783,57.1a.987.987,0,0,0-.322.054l-.155.078a3.914,3.914,0,0,0-2.566,2.72L21.553,71.616a.344.344,0,0,0,.312.467.521.521,0,0,0,.086.007.577.577,0,0,0,.3-.085l8.861-8.162a4.254,4.254,0,0,0,1.243-3.5l-.232-.234a1.12,1.12,0,0,0-.544-.778,7.484,7.484,0,0,1-1.633-.932,16.032,16.032,0,0,1-1.554-1.088A1,1,0,0,0,27.783,57.1Zm.131-10.081a.147.147,0,0,0-.047.008.151.151,0,0,0-.1.1v.078a3.5,3.5,0,0,1-.078.932.468.468,0,0,0,.078.312l1.477,2.409a1.082,1.082,0,0,1,.155.855l-1.01,4.042c-.07.14-.019.293.155.467a11.764,11.764,0,0,0,2.021,1.4,11.743,11.743,0,0,0,2.177,1.165.36.36,0,0,0,.187.052.365.365,0,0,0,.279-.13l3.109-2.8a.94.94,0,0,1,.777-.234l2.8.234.047,0a.469.469,0,0,0,.263-.08l.855-.466a.507.507,0,0,1-.043-.179c-.009-.088-.018-.164-.112-.21-1.22-.763-6.4-3.934-6.451-3.965l-.007,0c-.536-.328-5.27-3.225-6.444-3.959A.152.152,0,0,0,27.915,47.024Zm16.53-1.37a1.28,1.28,0,0,1,.739.233l4.741,2.876a.574.574,0,0,0,.246.052.319.319,0,0,0,.3-.13L62.127,32.829a1.55,1.55,0,0,0,.41-1.385,1.066,1.066,0,0,0-.721-.635h-.078l-2.8-.389c-.078,0-.078,0-.155-.078a.292.292,0,0,1-.078-.466c1-1.3,3.781-5.092,3.808-5.13a.662.662,0,0,0,0-1.011,1.585,1.585,0,0,0-.622-.31l-5.515-.855a1.4,1.4,0,0,0-1.322.544L52.1,27.156a1.349,1.349,0,0,0,.234,1.865.053.053,0,0,1,.054.028c.013.031-.008.081-.054.128,0,0-.036.035-.058.035a.016.016,0,0,1-.014-.008.05.05,0,0,1-.006-.027l-1.478-.233L48.6,28.71a1.557,1.557,0,0,0-1.477.622L38.341,41.3a.293.293,0,0,1-.262.161.29.29,0,0,1-.2-.083l-8.393-5.131a1.132,1.132,0,0,0-1.554.389,1.269,1.269,0,0,0,.466,1.632l.234.155a.4.4,0,0,1,.155.311l-.233,1.71a.176.176,0,0,1-.158.186.1.1,0,0,1-.075-.031h-.078L27,39.9a2.057,2.057,0,0,0-2.876.7,1.858,1.858,0,0,0,.234,2.643,3.1,3.1,0,0,1,.31.233l6.3,3.886a5.713,5.713,0,0,0,6.759-.233,2.727,2.727,0,0,1,1.628-.733,2.286,2.286,0,0,1,1.247.422,1.413,1.413,0,0,0,1.556,0l1.554-.933A1.278,1.278,0,0,1,44.444,45.654Z" transform="translate(0 0)"/></g><path class="b" d="M-206.662-23.081h18.16v6.871h-26.713V-57.719h8.553Zm40.4,6.871a9.15,9.15,0,0,1-.827-2.765,9.969,9.969,0,0,1-7.783,3.336,10.952,10.952,0,0,1-7.512-2.623,8.435,8.435,0,0,1-2.979-6.614,8.717,8.717,0,0,1,3.635-7.526q3.635-2.623,10.506-2.651h3.792v-1.768a5.083,5.083,0,0,0-1.1-3.421A4.318,4.318,0,0,0-172-41.526a4.909,4.909,0,0,0-3.264,1,3.39,3.39,0,0,0-1.183,2.737h-8.239a8.276,8.276,0,0,1,1.654-4.961,10.93,10.93,0,0,1,4.675-3.578,17.039,17.039,0,0,1,6.785-1.3q5.7,0,9.052,2.865a10.023,10.023,0,0,1,3.35,8.054v13.371a14.747,14.747,0,0,0,1.226,6.643v.485Zm-6.814-5.73a7.1,7.1,0,0,0,3.364-.813,5.336,5.336,0,0,0,2.281-2.181v-5.3h-3.079q-6.186,0-6.586,4.276l-.029.485a3.3,3.3,0,0,0,1.083,2.537A4.208,4.208,0,0,0-173.079-21.941Zm38.715,2.594A10.332,10.332,0,0,1-142.8-15.64q-4.961,0-7.569-2.851t-2.666-8.353V-47.057h8.239v19.928q0,4.818,4.39,4.818,4.191,0,5.759-2.908V-47.057h8.268V-16.21h-7.754Zm21.781-27.711.257,3.564a10.77,10.77,0,0,1,8.866-4.134q4.9,0,7.3,2.879t2.452,8.61V-16.21h-8.239V-35.938a5.345,5.345,0,0,0-1.14-3.806,5.1,5.1,0,0,0-3.792-1.183,5.668,5.668,0,0,0-5.217,2.965V-16.21h-8.239V-47.057Zm37.945,24.774a5.4,5.4,0,0,0,3.706-1.254,4.4,4.4,0,0,0,1.482-3.336h7.726a10.568,10.568,0,0,1-1.711,5.745,11.287,11.287,0,0,1-4.6,4.048,14.41,14.41,0,0,1-6.457,1.44q-6.614,0-10.434-4.205t-3.82-11.617V-32q0-7.127,3.792-11.375t10.406-4.248a12.974,12.974,0,0,1,9.28,3.293,11.659,11.659,0,0,1,3.549,8.766h-7.726a5.615,5.615,0,0,0-1.482-3.891,4.956,4.956,0,0,0-3.763-1.5,4.965,4.965,0,0,0-4.348,2.1q-1.468,2.1-1.468,6.8v.855q0,4.761,1.454,6.842A5.027,5.027,0,0,0-74.637-22.283Zm25.658-21.41a10.283,10.283,0,0,1,8.239-3.934q10.035,0,10.178,11.66V-16.21H-38.8V-35.739a5.731,5.731,0,0,0-1.14-3.92,4.889,4.889,0,0,0-3.792-1.269,5.608,5.608,0,0,0-5.246,2.794V-16.21h-8.239V-60h8.239ZM-23.806-16.21V-57.719h14.54q7.555,0,11.461,2.894T6.1-46.344A9.378,9.378,0,0,1,4.532-40.97,9.057,9.057,0,0,1,.17-37.563,8.763,8.763,0,0,1,5.2-34.342a9.524,9.524,0,0,1,1.839,5.93q0,5.987-3.82,9.066T-7.67-16.21Zm8.553-18.075v11.2h7.327a7.071,7.071,0,0,0,4.718-1.44,4.937,4.937,0,0,0,1.7-3.977q0-5.7-5.9-5.787Zm0-6.044h6.329q6.472-.114,6.472-5.16a4.769,4.769,0,0,0-1.639-4.063q-1.639-1.24-5.174-1.24h-5.987ZM30.789-16.21a9.149,9.149,0,0,1-.827-2.765,9.969,9.969,0,0,1-7.783,3.336,10.952,10.952,0,0,1-7.512-2.623,8.435,8.435,0,0,1-2.979-6.614A8.717,8.717,0,0,1,15.323-32.4q3.635-2.623,10.506-2.651H29.62v-1.768a5.083,5.083,0,0,0-1.1-3.421,4.318,4.318,0,0,0-3.464-1.283,4.909,4.909,0,0,0-3.264,1,3.39,3.39,0,0,0-1.183,2.737H12.372a8.276,8.276,0,0,1,1.654-4.961A10.93,10.93,0,0,1,18.7-46.33a17.039,17.039,0,0,1,6.785-1.3q5.7,0,9.052,2.865a10.023,10.023,0,0,1,3.35,8.054v13.371a14.747,14.747,0,0,0,1.226,6.643v.485Zm-6.814-5.73a7.1,7.1,0,0,0,3.364-.813,5.337,5.337,0,0,0,2.281-2.181v-5.3H26.541q-6.186,0-6.586,4.276l-.029.485a3.3,3.3,0,0,0,1.083,2.537A4.208,4.208,0,0,0,23.975-21.941Zm36.948-2.794a2.655,2.655,0,0,0-1.5-2.38,17,17,0,0,0-4.8-1.554q-11-2.309-11-9.351a8.476,8.476,0,0,1,3.407-6.856,13.743,13.743,0,0,1,8.909-2.751q5.873,0,9.394,2.765a8.715,8.715,0,0,1,3.521,7.184H60.609a3.987,3.987,0,0,0-1.14-2.922A4.826,4.826,0,0,0,55.9-41.754a4.931,4.931,0,0,0-3.222.941,2.97,2.97,0,0,0-1.14,2.395,2.539,2.539,0,0,0,1.3,2.209,13.344,13.344,0,0,0,4.376,1.454A35.744,35.744,0,0,1,62.4-33.373q6.529,2.395,6.529,8.3a8.046,8.046,0,0,1-3.621,6.828,15.618,15.618,0,0,1-9.351,2.609,16.313,16.313,0,0,1-6.885-1.383,11.552,11.552,0,0,1-4.718-3.792,8.81,8.81,0,0,1-1.711-5.2H50.46a4.3,4.3,0,0,0,1.625,3.364,6.446,6.446,0,0,0,4.048,1.169,5.966,5.966,0,0,0,3.578-.9A2.794,2.794,0,0,0,60.923-24.734ZM88.434-15.64A15.143,15.143,0,0,1,77.386-19.8q-4.262-4.162-4.262-11.09v-.8A18.634,18.634,0,0,1,74.92-40a13.181,13.181,0,0,1,5.089-5.645,14.283,14.283,0,0,1,7.512-1.981q6.329,0,9.964,3.991t3.635,11.318v3.364H81.477a7.654,7.654,0,0,0,2.409,4.847,7.282,7.282,0,0,0,5.089,1.825,8.893,8.893,0,0,0,7.441-3.45l4.048,4.533a12.368,12.368,0,0,1-5.018,4.091A16.462,16.462,0,0,1,88.434-15.64Zm-.941-25.316A5.159,5.159,0,0,0,83.516-39.3a8.542,8.542,0,0,0-1.953,4.732H93.024v-.656a6.091,6.091,0,0,0-1.482-4.234A5.325,5.325,0,0,0,87.493-40.956Z" transform="translate(215.215 182.829)"/></g></svg>